<svg width="25" height="25" viewBox="0 0 25 25" fill="none" xmlns="http://www.w3.org/2000/svg">
<g clip-path="url(#clip0_1_1138)">
<path d="M5.38295 11.8434L13.207 19.6675L21.0311 11.8434C21.7229 11.1517 22.1115 10.2135 22.1115 9.23521C22.1115 8.25693 21.7229 7.31872 21.0311 6.62697C20.6886 6.28445 20.282 6.01275 19.8345 5.82738C19.387 5.64201 18.9073 5.5466 18.4229 5.5466C17.4446 5.5466 16.5064 5.93522 15.8147 6.62697L13.207 9.23459L10.5994 6.6282C9.90592 5.94573 8.97083 5.56495 7.99784 5.5688C7.02485 5.57264 6.0928 5.96081 5.40471 6.64874C4.71662 7.33667 4.32824 8.26863 4.32416 9.24161C4.32008 10.2146 4.70065 11.1498 5.38295 11.8434ZM12.3378 4.88733L13.207 5.75653L14.0763 4.88733C14.6462 4.31241 15.324 3.85571 16.0709 3.54347C16.8178 3.23122 17.619 3.06958 18.4285 3.0678C19.238 3.06603 20.0399 3.22417 20.7881 3.53314C21.5364 3.84211 22.2162 4.29583 22.7886 4.86825C23.3611 5.44067 23.8148 6.12051 24.1238 6.86875C24.4327 7.61699 24.5909 8.41888 24.5891 9.2284C24.5873 10.0379 24.4257 10.8391 24.1134 11.586C23.8012 12.3329 23.3445 13.0107 22.7696 13.5806L14.0775 22.2739C13.9633 22.3882 13.8277 22.4789 13.6785 22.5408C13.5292 22.6027 13.3692 22.6345 13.2077 22.6345C13.0461 22.6345 12.8861 22.6027 12.7369 22.5408C12.5876 22.4789 12.452 22.3882 12.3378 22.2739L3.64453 13.5819C3.0618 13.0138 2.59766 12.3357 2.27904 11.5868C1.96042 10.838 1.79367 10.0333 1.78846 9.21951C1.78324 8.40572 1.93967 7.59899 2.24866 6.84612C2.55766 6.09325 3.01307 5.40923 3.58848 4.83374C4.16389 4.25825 4.84785 3.80274 5.60067 3.49364C6.3535 3.18454 7.16021 3.028 7.974 3.03309C8.7878 3.03819 9.59248 3.20483 10.3414 3.52334C11.0903 3.84185 11.7685 4.3059 12.3366 4.88856L12.3378 4.88733Z" fill="#181725"/>
</g>
<defs>
<clipPath id="clip0_1_1138">
<rect width="24" height="24" fill="white" transform="translate(0.688721 0.83374)"/>
</clipPath>
</defs>
</svg>
