<svg width="21" height="21" viewBox="0 0 21 21" fill="none" xmlns="http://www.w3.org/2000/svg">
<path d="M3.40381 0.401611H17.4038C18.1862 0.401611 18.9365 0.712638 19.4897 1.26587C20.043 1.8191 20.354 2.56942 20.354 3.35181V5.35181C20.354 6.21903 19.9801 6.99943 19.3833 7.53931L19.3667 7.55493V18.3167C19.3667 18.8338 19.1611 19.3299 18.7954 19.6956C18.4297 20.0612 17.9336 20.2668 17.4165 20.2668H9.77686V20.2659L9.76709 20.2678C9.64732 20.2904 9.52569 20.302 9.40381 20.302H7.40381C7.28192 20.302 7.16029 20.2904 7.04053 20.2678L7.03076 20.3167L7.04053 20.2668H3.41455C2.89747 20.2668 2.40128 20.0612 2.03564 19.6956C1.67008 19.3299 1.46436 18.8337 1.46436 18.3167V7.47583L1.41162 7.52759C1.11558 7.25696 0.877041 6.92886 0.712402 6.56274C0.541269 6.18206 0.453031 5.76919 0.453613 5.35181V3.35181C0.453613 2.56942 0.76464 1.8191 1.31787 1.26587C1.8711 0.712637 2.62142 0.401612 3.40381 0.401611ZM13.3706 7.55103C12.8304 8.03559 12.1295 8.303 11.4038 8.302H9.40381C8.64863 8.302 7.95816 8.01803 7.43701 7.55103L7.40381 7.52075L7.37061 7.55103C6.83035 8.03559 6.12954 8.303 5.40381 8.302H3.36377V18.3665H5.45361V13.3518C5.45361 12.8346 5.65921 12.3386 6.0249 11.9729C6.3906 11.6072 6.88664 11.4016 7.40381 11.4016H9.40381C9.92098 11.4016 10.417 11.6072 10.7827 11.9729C11.1484 12.3386 11.354 12.8346 11.354 13.3518V18.3665H17.4673V8.302H15.4038C14.6486 8.302 13.9582 8.01803 13.437 7.55103L13.4038 7.52075L13.3706 7.55103ZM7.354 18.3665H9.40381V18.3176H9.45361V13.302H7.354V18.3665ZM14.4038 11.4016H15.4038C15.6558 11.4016 15.8975 11.5018 16.0757 11.6799C16.2538 11.8581 16.354 12.0999 16.354 12.3518V15.3518C16.354 15.6038 16.2538 15.8455 16.0757 16.0237C15.8975 16.2018 15.6558 16.302 15.4038 16.302H14.4038C14.1519 16.302 13.9101 16.2018 13.7319 16.0237C13.5538 15.8455 13.4536 15.6038 13.4536 15.3518V12.3518C13.4536 12.0999 13.5538 11.8581 13.7319 11.6799C13.9101 11.5018 14.1519 11.4016 14.4038 11.4016ZM3.40381 2.302C3.12533 2.302 2.85853 2.41271 2.66162 2.60962C2.46471 2.80653 2.354 3.07333 2.354 3.35181V5.35181C2.354 5.63028 2.46471 5.89708 2.66162 6.09399C2.85853 6.29091 3.12533 6.40161 3.40381 6.40161H5.40381C5.68229 6.40161 5.94908 6.29091 6.146 6.09399C6.34291 5.89708 6.45361 5.63028 6.45361 5.35181V2.302H3.40381ZM8.354 5.35181C8.354 5.63028 8.46471 5.89708 8.66162 6.09399C8.85853 6.29091 9.12533 6.40161 9.40381 6.40161H11.4038C11.6823 6.40161 11.9491 6.29091 12.146 6.09399C12.3429 5.89708 12.4536 5.63028 12.4536 5.35181V2.302H8.354V5.35181ZM14.354 5.35181C14.354 5.63028 14.4647 5.89708 14.6616 6.09399C14.8585 6.29091 15.1253 6.40161 15.4038 6.40161H17.4038C17.6823 6.40161 17.9491 6.29091 18.146 6.09399C18.3429 5.89708 18.4536 5.63028 18.4536 5.35181V3.35181C18.4536 3.07333 18.3429 2.80653 18.146 2.60962C17.9491 2.41271 17.6823 2.302 17.4038 2.302H14.354V5.35181Z" fill="#181725" stroke="white" stroke-width="0.1"/>
</svg>
